<?xml version="1.0" standalone="no"?>
<!DOCTYPE svg PUBLIC "-//W3C//DTD SVG 20010904//EN"
 "http://www.w3.org/TR/2001/REC-SVG-20010904/DTD/svg10.dtd">
<svg version="1.0" xmlns="http://www.w3.org/2000/svg"
 width="626.000000pt" height="626.000000pt" viewBox="0 0 626.000000 626.000000"
 preserveAspectRatio="xMidYMid meet">
<g transform="translate(0.000000,626.000000) scale(0.100000,-0.100000)"
fill="#000000" stroke="none">
<path d="M131 5916 c-21 -25 -80 -264 -116 -471 -11 -61 -14 -245 -4 -245 5 0
9 -7 9 -15 0 -8 -5 -15 -11 -15 -20 0 -4 -341 21 -454 72 -325 255 -613 541
-851 185 -154 469 -318 859 -495 271 -124 391 -194 436 -259 16 -22 35 -43 42
-46 7 -2 48 0 90 7 116 17 357 14 534 -6 86 -10 162 -15 168 -11 26 16 2 81
-115 315 -155 310 -354 618 -548 850 -197 234 -421 433 -872 775 -423 321
-703 574 -917 829 -46 55 -88 101 -94 103 -6 2 -16 -3 -23 -11z"/>
<path d="M6138 5765 c-5 -6 -68 -29 -253 -94 -97 -34 -382 -150 -468 -190 -34
-16 -73 -32 -86 -36 -109 -34 -599 -280 -821 -413 -452 -271 -670 -467 -881
-792 -129 -199 -205 -367 -314 -695 -88 -264 -100 -294 -141 -367 -45 -78
-153 -184 -212 -209 -59 -25 -167 -33 -267 -20 -291 39 -353 43 -535 38 -240
-8 -363 -37 -504 -121 -140 -83 -217 -190 -240 -332 -8 -49 -26 -120 -40 -159
-33 -92 -37 -239 -7 -276 l19 -23 38 43 c64 71 78 75 247 72 l147 -2 85 40
c98 47 133 50 223 20 76 -26 152 -91 190 -163 22 -43 26 -64 26 -131 0 -127
-45 -249 -173 -470 l-46 -80 -6 -130 c-6 -153 -21 -195 -68 -195 -16 0 -76 11
-133 24 -144 34 -255 49 -302 42 -98 -16 -171 -96 -87 -96 16 0 49 -3 74 -6
l46 -7 -29 -36 c-30 -36 -39 -74 -20 -86 6 -4 29 0 53 9 23 8 62 17 86 20 l43
4 -25 -26 c-69 -74 -71 -118 -4 -94 69 24 130 25 223 2 96 -24 125 -40 195
-107 l46 -45 22 28 c18 23 21 40 21 129 0 115 8 131 73 142 l35 5 6 -68 c11
-111 9 -128 -23 -192 -39 -77 -67 -99 -139 -107 -169 -18 -272 -55 -309 -111
-26 -40 -7 -48 71 -30 73 17 108 20 90 8 -35 -24 -58 -102 -35 -116 5 -3 20 3
34 14 32 25 87 45 150 54 l47 7 -25 -37 c-27 -40 -30 -80 -5 -77 8 1 51 18 96
37 136 60 241 69 357 29 59 -21 75 -11 58 38 -19 54 -58 96 -115 124 -30 14
-56 29 -59 31 -3 3 2 33 9 67 11 47 24 71 51 99 21 21 43 38 50 38 7 0 33 10
58 21 47 22 131 115 222 245 77 110 151 184 184 184 32 0 56 -28 65 -76 7 -36
-13 -75 -134 -267 -59 -93 -73 -123 -68 -143 5 -17 33 -42 91 -80 325 -212
719 -296 1061 -228 160 32 350 112 492 207 127 85 128 94 25 172 -37 28 -97
75 -134 105 -156 127 -205 167 -243 195 -58 42 -239 188 -313 252 -115 100
-195 232 -234 388 -7 28 -13 99 -14 160 l0 109 80 12 c146 21 237 52 346 118
97 58 163 129 221 236 122 222 252 368 478 537 30 22 147 98 260 168 287 179
304 190 405 266 172 128 271 224 353 338 155 218 225 364 298 616 l34 119 0
637 c0 390 -4 648 -10 663 -9 24 -46 36 -62 21z"/>
</g>
</svg>
